<svg xmlns="http://www.w3.org/2000/svg" width="48" height="48" viewBox="0 0 48 48" fill="none"><defs><linearGradient id="pen-grad" x1="10%" y1="10%" x2="90%" y2="90%"><stop offset="0%" stop-color="#863bff" /><stop offset="100%" stop-color="#47bfff" /></linearGradient></defs><path d="M41 7C39 5 36 5 33 8L9 32C8 33 7 35 6 37L4 43C3.7 44 4 44.3 5 44L11 42C13 41 15 40 16 39L40 15C43 12 43 9 41 7Z" fill="url(#pen-grad)" /><path d="M28 14L34 20" stroke="#ffffff" stroke-width="4" stroke-linecap="round" opacity="0.6" /><path d="M24 18L30 24" stroke="#ffffff" stroke-width="2" stroke-linecap="round" opacity="0.4" /><path d="M5 43L15 33" stroke="#ffffff" stroke-width="2" stroke-linecap="round" /><path d="M38 4 L40 0 L42 4 L46 6 L42 8 L40 12 L38 8 L34 6 Z" fill="#47bfff" opacity="0.8"/><path d="M12 8 L13 5 L14 8 L17 9 L14 10 L13 13 L12 10 L9 9 Z" fill="#863bff" opacity="0.6"/></svg>